<?xml version="1.0" standalone="no"?>
<!DOCTYPE svg PUBLIC "-//W3C//DTD SVG 20010904//EN"
 "http://www.w3.org/TR/2001/REC-SVG-20010904/DTD/svg10.dtd">
<svg version="1.0" xmlns="http://www.w3.org/2000/svg"
 width="303.000000pt" height="303.000000pt" viewBox="0 0 303.000000 303.000000"
 preserveAspectRatio="xMidYMid meet">
<metadata>
Created by potrace 1.11, written by Peter Selinger 2001-2013
</metadata>
<g transform="translate(0.000000,303.000000) scale(0.100000,-0.100000)"
fill="#000000" stroke="none">
<path d="M1440 2405 c-11 -14 -6 -55 8 -55 8 0 0 -136 -8 -143 -3 -2 -14 -9
-25 -15 -17 -9 -15 -11 18 -17 20 -4 54 -4 74 0 l38 7 -28 14 c-25 14 -27 19
-27 79 0 35 5 75 11 89 9 20 9 29 -1 41 -16 19 -44 19 -60 0z"/>
<path d="M1337 2289 c-61 -14 -137 -50 -130 -62 3 -6 1 -7 -6 -3 -14 9 -104
-49 -147 -96 -46 -48 -100 -131 -119 -182 -10 -25 -25 -46 -35 -49 -10 -3 -31
-24 -46 -47 -56 -84 -36 -244 36 -286 16 -10 41 -45 62 -88 41 -82 85 -139
100 -129 6 3 9 2 5 -3 -7 -12 10 -33 58 -70 22 -17 46 -29 54 -26 8 2 11 0 8
-5 -4 -6 24 -24 62 -42 91 -42 203 -58 302 -44 89 13 192 50 183 65 -4 7 -2 8
4 4 14 -9 55 12 47 24 -3 5 0 12 6 16 8 4 9 3 5 -4 -13 -21 9 -12 47 19 20 17
34 35 31 41 -4 6 -2 8 4 4 14 -8 84 74 77 92 -2 7 0 10 5 7 5 -3 25 26 43 64
22 45 30 72 23 76 -6 2 -2 3 10 0 27 -7 57 25 48 51 -5 15 -4 16 4 4 9 -12 13
-9 23 15 17 44 15 144 -5 189 -15 36 -50 76 -66 76 -4 0 -23 33 -42 73 -52
107 -180 246 -215 232 -8 -2 -11 -1 -8 5 8 12 -52 43 -67 34 -7 -4 -8 -3 -4 4
7 12 -62 36 -138 47 -41 7 -46 5 -46 -12 0 -17 9 -22 53 -28 28 -4 62 -8 74
-9 12 0 19 -3 17 -5 -2 -2 31 -21 74 -42 42 -21 74 -39 70 -39 -4 0 13 -19 39
-42 128 -118 193 -306 164 -474 -16 -87 -43 -153 -97 -230 -24 -34 -41 -64
-39 -68 3 -3 2 -4 -1 -2 -3 2 -34 -18 -69 -44 -35 -27 -73 -51 -85 -55 -11 -3
-18 -9 -16 -13 2 -4 -6 -7 -17 -8 -12 -1 -51 -9 -87 -19 -63 -17 -73 -17 -272
-2 -14 1 -24 6 -20 11 3 5 -5 7 -16 4 -12 -4 -20 -3 -17 2 2 4 -14 15 -36 25
-22 10 -54 29 -71 41 -17 13 -36 21 -42 17 -6 -3 -8 -3 -4 2 4 4 -15 33 -43
63 -98 107 -145 243 -136 392 10 166 90 309 228 409 21 16 36 30 34 33 -2 2 4
4 13 5 9 1 49 13 87 27 39 14 85 26 103 26 25 0 32 4 32 20 0 22 -26 25 -93 9z
m-223 -137 c3 -5 -1 -9 -9 -9 -8 0 -12 4 -9 9 3 4 7 8 9 8 2 0 6 -4 9 -8z
m-184 -277 c0 -2 -6 -5 -13 -8 -8 -3 -14 1 -14 8 0 7 6 11 14 8 7 -3 13 -6 13
-8z m1111 -9 c-10 -11 -8 -17 6 -25 16 -9 16 -10 -3 -8 -12 0 -21 6 -20 12 2
14 16 35 23 35 3 0 0 -6 -6 -14z m-1174 -68 c-3 -8 -6 -5 -6 6 -1 11 2 17 5
13 3 -3 4 -12 1 -19z m51 -153 c-3 -3 -9 2 -12 12 -6 14 -5 15 5 6 7 -7 10
-15 7 -18z m7 -45 c-1 -11 -4 -22 -7 -25 -4 -5 -4 34 1 43 4 8 7 -1 6 -18z
m100 -189 c3 -5 2 -12 -3 -15 -5 -3 -9 1 -9 9 0 17 3 19 12 6z m815 -105 c0
-2 -8 -10 -17 -17 -16 -13 -17 -12 -4 4 13 16 21 21 21 13z m-670 -41 c0 -12
-19 -12 -23 0 -4 9 -1 12 9 8 7 -3 14 -7 14 -8z"/>
<path d="M1190 1898 c-68 -46 -90 -136 -47 -198 49 -73 130 -99 197 -62 96 52
108 174 26 251 -39 37 -128 41 -176 9z m129 -42 c30 -16 51 -53 51 -91 0 -32
-43 -81 -77 -88 -65 -12 -132 51 -118 113 8 36 58 80 91 80 14 0 37 -6 53 -14z"/>
<path d="M1248 1809 c-23 -13 -24 -65 -2 -73 30 -12 53 -6 65 16 9 17 9 24 -5
33 -9 7 -16 17 -16 24 0 14 -19 14 -42 0z m42 -35 c0 -9 5 -12 12 -8 7 4 8 3
4 -4 -5 -8 -13 -8 -32 0 -18 8 -21 14 -12 20 20 12 28 10 28 -8z"/>
<path d="M1600 1913 c-47 -17 -90 -83 -90 -138 0 -116 110 -186 215 -135 141
68 92 282 -64 279 -25 0 -53 -3 -61 -6z m122 -72 c26 -23 33 -36 33 -69 0 -46
-17 -70 -62 -89 -28 -11 -38 -11 -67 1 -60 25 -82 81 -52 135 31 56 99 66 148
22z"/>
<path d="M1626 1798 c-20 -28 -20 -33 0 -52 23 -23 63 -20 73 5 5 16 1 28 -16
45 -30 30 -38 30 -57 2z m54 -18 c0 -5 -9 -14 -19 -19 -14 -8 -22 -7 -32 7
-13 15 -12 16 4 3 15 -12 17 -11 17 3 0 9 7 16 15 16 8 0 15 -4 15 -10z"/>
<path d="M235 1806 c-23 -35 -13 -71 34 -117 25 -25 35 -43 30 -51 -6 -9 -13
-10 -23 -3 -8 6 -39 27 -69 48 -56 40 -81 41 -93 5 -7 -22 14 -80 26 -73 4 3
10 -2 13 -10 4 -8 24 -23 47 -35 35 -18 39 -23 30 -40 -12 -22 -22 -27 -14 -7
7 18 -125 61 -143 45 -15 -12 -18 -62 -3 -53 5 3 7 0 4 -8 -7 -20 24 -30 34
-10 8 14 10 13 15 -1 4 -10 3 -15 -3 -11 -6 3 -10 1 -10 -4 0 -6 18 -14 40
-17 26 -4 41 -13 45 -25 11 -34 129 -132 202 -166 88 -42 141 -51 174 -30 28
18 44 17 79 -5 71 -45 234 -127 243 -121 6 3 7 1 3 -5 -4 -7 -3 -12 3 -12 7 0
8 -46 4 -133 -3 -73 -3 -158 1 -190 l7 -57 145 0 144 0 -6 63 c-9 104 -34 205
-66 265 -34 66 -67 104 -81 95 -6 -3 -7 -1 -3 5 7 12 -45 55 -87 71 -24 9 -27
8 -27 -9 0 -11 -2 -20 -4 -20 -3 0 -49 30 -103 68 -164 112 -148 96 -134 140
7 22 10 48 7 59 -4 11 -45 60 -91 109 -82 87 -95 101 -76 90 13 -8 91 83 91
105 0 19 -28 39 -54 39 -20 0 -93 -65 -101 -89 -5 -16 -8 -16 -54 -2 -35 12
-56 27 -75 54 -15 20 -31 35 -36 32 -4 -3 -7 3 -6 13 2 29 -40 27 -59 -2z m39
-11 c-20 -30 -20 -30 -20 -6 0 11 4 18 7 15 4 -2 10 0 14 6 3 5 8 10 11 10 2
0 -3 -11 -12 -25z m301 -45 c-10 -11 -21 -18 -23 -15 -3 3 3 12 14 20 27 20
30 18 9 -5z m-324 -13 c-10 -9 -11 -8 -5 6 3 10 9 15 12 12 3 -3 0 -11 -7 -18z
m349 9 c0 -2 -8 -10 -17 -17 -16 -13 -17 -12 -4 4 13 16 21 21 21 13z m-326
-18 c-5 -8 -1 -9 12 -4 14 5 16 4 7 -5 -13 -13 -37 -3 -28 12 4 5 8 9 11 9 3
0 2 -5 -2 -12z m61 2 c-3 -5 -12 -10 -18 -10 -7 0 -6 4 3 10 19 12 23 12 15 0z
m179 -25 c-5 -11 -1 -14 12 -9 15 5 16 4 5 -4 -21 -15 -45 -4 -30 14 15 18 20
18 13 -1z m-244 -129 c0 -3 -4 -8 -10 -11 -5 -3 -10 -1 -10 4 0 6 5 11 10 11
6 0 10 -2 10 -4z m-183 -31 c0 -8 -4 -12 -9 -9 -5 3 -6 10 -3 15 9 13 12 11
12 -6z m123 -52 c0 -3 -6 -3 -14 0 -7 3 -20 0 -27 -6 -11 -10 -11 -9 0 5 11
15 41 15 41 1z m490 -223 c-6 -11 -13 -20 -16 -20 -2 0 0 9 6 20 6 11 13 20
16 20 2 0 0 -9 -6 -20z m108 -23 l22 -23 -23 -1 c-12 0 -16 1 -9 4 10 4 9 9
-4 24 -24 27 -12 24 14 -4z m56 -39 c-3 -4 0 -8 7 -8 7 0 9 -3 6 -6 -4 -4 -14
-1 -24 7 -15 12 -16 12 -10 -5 6 -16 5 -17 -8 -6 -11 9 -12 15 -5 20 15 9 40
8 34 -2z m-59 -8 c3 -6 -1 -7 -9 -4 -18 7 -21 14 -7 14 6 0 13 -4 16 -10z m25
-24 c0 -2 -7 -7 -16 -10 -8 -3 -12 -2 -9 4 6 10 25 14 25 6z m37 -9 c0 -7 -9
-13 -19 -13 -18 0 -18 1 -2 13 10 7 18 13 19 13 1 0 2 -6 2 -13z m118 -5 c-3
-3 -11 0 -18 7 -9 10 -8 11 6 5 10 -3 15 -9 12 -12z m66 -59 c13 -16 12 -17
-3 -4 -10 7 -18 15 -18 17 0 8 8 3 21 -13z m-95 -25 c4 -7 4 -10 -1 -6 -4 4
-15 2 -24 -5 -14 -11 -14 -10 -2 6 16 20 18 21 27 5z"/>
<path d="M1430 1411 l-105 -6 48 -32 c86 -57 142 -53 192 13 l26 34 -28 -2
c-15 -1 -75 -4 -133 -7z"/>
<path d="M952 1317 c-7 -25 -12 -48 -12 -50 0 -3 25 -17 55 -31 127 -63 212
-223 231 -438 l6 -78 243 0 242 0 7 81 c21 237 113 389 274 455 6 3 -23 94
-30 94 -4 0 -8 -4 -8 -9 0 -20 -132 -148 -184 -180 -216 -129 -464 -117 -662
32 -54 41 -90 80 -138 151 -12 17 -14 15 -24 -27z"/>
<path d="M2702 1348 c-7 -7 -12 -40 -12 -80 l0 -68 -77 0 c-43 0 -102 -3 -131
-7 -51 -6 -55 -8 -75 -50 -19 -38 -25 -44 -47 -39 -14 2 -98 17 -187 32 l-163
27 0 29 c0 36 -16 36 -66 0 -112 -82 -170 -204 -188 -399 l-7 -73 139 0 139 0
7 88 c3 48 3 127 0 175 -5 66 -4 87 5 87 7 0 87 -21 177 -47 161 -46 164 -47
164 -74 0 -75 243 -159 376 -131 26 6 54 8 62 4 11 -4 13 -2 7 9 -8 12 -6 12
8 0 20 -16 23 -26 5 -15 -9 6 -9 3 1 -9 17 -22 73 -32 100 -18 12 7 21 22 21
35 0 19 -10 29 -45 46 -24 12 -50 18 -57 14 -7 -4 -10 -4 -6 1 4 4 0 14 -10
21 -24 17 -10 27 22 14 15 -5 49 -10 76 -10 57 0 83 20 78 59 -3 27 1 26 -135
47 -22 3 -33 10 -33 22 0 14 10 17 59 17 49 0 64 4 85 24 29 27 33 53 12 73
-11 12 -26 12 -73 5 -49 -8 -67 -7 -106 8 l-46 17 6 64 c5 58 4 67 -17 89 -26
27 -49 32 -68 13z m63 -28 c3 -6 -1 -7 -9 -4 -18 7 -21 14 -7 14 6 0 13 -4 16
-10z m-891 -276 c3 -8 2 -12 -4 -9 -6 3 -10 10 -10 16 0 14 7 11 14 -7z m964
-54 c-7 -11 -15 -15 -17 -9 -2 6 3 15 10 20 20 12 21 11 7 -11z"/>
</g>
</svg>
